<?xml version="1.0" standalone="no"?>
<!DOCTYPE svg PUBLIC "-//W3C//DTD SVG 20010904//EN"
 "http://www.w3.org/TR/2001/REC-SVG-20010904/DTD/svg10.dtd">
<svg version="1.0" xmlns="http://www.w3.org/2000/svg"
 width="1087.000000pt" height="1087.000000pt" viewBox="0 0 1087.000000 1087.000000"
 preserveAspectRatio="xMidYMid meet">
<metadata>
Created by potrace 1.11, written by Peter Selinger 2001-2013
</metadata>
<g transform="translate(0.000000,1087.000000) scale(0.100000,-0.100000)"
fill="#000000" stroke="none">
<path d="M5617 9212 c-13 -26 -37 -61 -53 -77 -43 -45 -74 -88 -74 -102 0 -7
-4 -13 -8 -13 -5 0 -14 -10 -20 -22 -7 -13 -28 -43 -47 -68 -19 -25 -39 -54
-44 -65 -5 -11 -21 -33 -35 -48 -14 -15 -26 -30 -26 -33 0 -3 -13 -22 -29 -42
-16 -20 -40 -57 -52 -82 -12 -25 -31 -57 -41 -72 -11 -16 -17 -28 -13 -28 3 0
-1 -10 -8 -22 -8 -13 -24 -52 -37 -88 -26 -76 -38 -106 -56 -141 -7 -14 -11
-29 -7 -32 3 -4 1 -13 -6 -21 -13 -15 -5 -66 12 -78 11 -7 -27 -71 -68 -115
-31 -33 -55 -66 -55 -76 0 -4 -13 -28 -30 -52 -16 -24 -30 -46 -30 -50 0 -18
-42 -95 -52 -95 -6 0 -8 -3 -5 -7 10 -9 -31 -35 -43 -28 -18 11 -86 -36 -106
-73 -10 -20 -21 -39 -24 -42 -10 -10 -31 -45 -36 -62 -4 -10 -11 -18 -17 -18
-6 0 -7 -3 -4 -7 4 -4 -5 -19 -20 -35 -15 -15 -23 -28 -17 -28 5 0 4 -4 -2 -8
-15 -10 -84 -130 -84 -146 0 -8 -7 -19 -15 -26 -8 -7 -12 -16 -9 -22 3 -5 1
-15 -5 -22 -6 -7 -12 -27 -13 -45 -1 -18 -5 -34 -9 -37 -10 -6 12 -87 25 -96
14 -9 15 -28 2 -53 -12 -23 -13 -27 -15 -57 -1 -13 -5 -18 -9 -13 -15 23 -89
17 -131 -9 -23 -15 -41 -31 -41 -36 0 -6 -7 -10 -15 -10 -8 0 -14 -3 -13 -7 1
-5 -8 -30 -20 -57 -13 -28 -25 -61 -29 -75 -3 -13 -17 -40 -29 -59 -13 -19
-29 -49 -36 -68 -6 -19 -16 -34 -20 -34 -4 0 -8 -5 -8 -12 0 -13 -40 -100 -50
-108 -3 -3 -14 -26 -24 -53 -10 -26 -24 -53 -31 -60 -7 -7 -16 -23 -19 -35 -4
-12 -12 -22 -17 -22 -5 0 -9 -8 -10 -17 0 -11 -3 -13 -6 -5 -2 6 -13 12 -24
12 -23 0 -84 37 -135 82 -33 30 -46 43 -88 88 -20 22 -54 48 -116 88 -30 20
-64 44 -75 55 -11 10 -31 26 -45 35 -28 18 -42 29 -87 72 -17 16 -35 30 -40
30 -4 0 -30 21 -56 45 -27 25 -52 45 -56 45 -5 0 -14 14 -21 30 -7 17 -19 30
-28 30 -21 0 -160 139 -177 177 -9 21 -23 35 -41 39 -15 4 -35 14 -44 23 -9 9
-36 32 -60 51 -23 19 -52 44 -64 55 -26 23 -53 41 -81 54 -11 5 -27 18 -35 30
-8 12 -20 21 -28 21 -7 0 -15 7 -18 15 -4 8 -12 15 -19 15 -6 0 -20 10 -31 21
-10 12 -35 32 -54 45 -19 13 -62 48 -95 78 -33 31 -64 56 -68 56 -5 0 -33 20
-61 45 -29 25 -56 45 -59 45 -8 0 -40 25 -78 60 -31 29 -54 45 -89 63 -13 6
-34 21 -46 32 -31 28 -42 36 -101 75 -29 18 -53 37 -53 42 0 4 -3 7 -8 6 -8
-2 -94 51 -128 79 -12 10 -34 27 -50 38 -54 39 -150 117 -200 163 -139 129
-151 135 -206 113 -13 -5 -36 -12 -53 -16 -16 -4 -55 -32 -90 -65 -79 -78
-147 -145 -181 -182 -28 -29 -29 -29 -44 -10 -9 11 -26 23 -38 26 -12 4 -28
13 -35 19 -7 7 -35 28 -62 46 -28 19 -52 38 -55 41 -3 3 -22 14 -43 23 -20 10
-37 22 -37 27 0 6 -5 10 -11 10 -12 0 -92 59 -97 72 -2 5 -10 8 -17 8 -7 0
-28 14 -46 30 -47 42 -52 46 -80 60 -13 7 -28 19 -32 26 -4 8 -14 14 -20 14
-18 0 -87 67 -87 85 0 9 -9 15 -25 15 -15 0 -25 -6 -25 -14 0 -8 -19 -32 -41
-53 -89 -82 -99 -94 -94 -120 2 -14 13 -36 25 -48 11 -12 20 -25 20 -29 0 -8
38 -50 106 -120 17 -17 39 -43 48 -58 10 -15 26 -30 37 -33 11 -4 17 -11 14
-16 -4 -5 -2 -9 3 -9 6 0 49 -37 96 -83 47 -46 88 -82 90 -80 2 3 7 -5 11 -16
3 -11 15 -23 26 -26 10 -4 19 -10 19 -15 0 -5 16 -25 35 -45 19 -21 37 -46 40
-56 4 -10 13 -19 21 -19 8 0 14 -5 14 -10 0 -7 6 -7 20 0 26 14 26 -2 0 -25
-11 -10 -20 -22 -20 -27 0 -5 -7 -16 -15 -25 -8 -8 -13 -19 -10 -24 4 -5 1 -9
-4 -9 -6 0 -11 -9 -11 -20 0 -11 -5 -20 -11 -20 -5 0 -7 -4 -4 -10 3 -5 2 -10
-4 -10 -5 0 -13 -10 -17 -22 -3 -12 -13 -28 -20 -36 -8 -7 -14 -20 -14 -28 0
-8 -4 -14 -10 -14 -5 0 -10 -4 -10 -9 0 -5 -5 -22 -11 -38 -14 -33 -17 -44
-25 -98 -4 -22 -10 -42 -14 -45 -8 -5 -13 -41 -11 -67 1 -13 5 -17 95 -98 37
-33 86 -72 109 -87 23 -15 47 -32 54 -38 7 -5 16 -10 20 -10 4 0 33 -24 64
-53 71 -66 97 -87 108 -87 5 0 11 -4 13 -9 1 -5 21 -21 43 -36 42 -28 95 -71
147 -117 16 -16 35 -28 40 -28 6 0 22 -12 37 -27 24 -24 70 -64 107 -92 6 -5
20 -12 32 -15 12 -4 22 -11 22 -16 0 -5 8 -11 18 -14 10 -4 42 -29 72 -56 30
-28 58 -50 64 -50 5 0 28 -20 52 -45 23 -25 46 -45 51 -45 5 0 31 -20 58 -45
28 -25 46 -45 42 -45 -5 0 24 -27 65 -60 40 -33 91 -77 113 -98 22 -20 53 -46
70 -56 16 -11 34 -23 40 -28 5 -5 31 -25 58 -45 26 -19 47 -40 47 -44 0 -5 7
-9 15 -9 8 0 23 -10 35 -22 11 -12 20 -18 20 -13 0 4 13 -5 28 -21 34 -34 108
-94 117 -94 11 0 85 -59 132 -105 59 -57 82 -75 95 -75 6 0 9 -3 6 -6 -7 -6
70 -84 128 -129 60 -48 104 -97 104 -117 0 -6 3 -9 6 -5 3 3 19 -8 35 -24 16
-16 29 -26 29 -23 0 4 12 -6 28 -23 15 -16 44 -38 64 -48 21 -9 55 -35 77 -56
21 -21 43 -39 49 -39 5 0 12 -7 16 -15 3 -8 17 -20 31 -27 14 -6 25 -17 25
-25 0 -7 5 -13 10 -13 22 0 21 -31 -2 -77 -12 -26 -31 -55 -40 -65 -10 -10
-18 -25 -18 -33 0 -8 -4 -15 -8 -15 -4 0 -13 -12 -20 -27 -6 -16 -21 -41 -32
-58 -11 -16 -24 -39 -29 -51 -5 -11 -22 -40 -37 -65 -33 -50 -38 -59 -91 -148
-21 -35 -46 -75 -56 -90 -9 -14 -20 -34 -23 -43 -4 -10 -10 -18 -14 -18 -4 0
-15 -18 -25 -40 -10 -22 -21 -40 -25 -40 -5 0 -11 -11 -14 -25 -4 -14 -11 -25
-16 -25 -6 0 -10 -7 -10 -15 0 -8 -4 -15 -10 -15 -5 0 -10 -5 -10 -10 0 -6
-15 -32 -32 -58 -18 -26 -41 -63 -51 -83 -10 -19 -29 -48 -43 -64 -13 -15 -24
-31 -24 -36 0 -10 -123 -193 -132 -197 -5 -2 -8 -9 -8 -16 0 -7 -13 -30 -29
-52 -16 -21 -29 -41 -28 -44 1 -7 -77 -124 -85 -128 -5 -2 -8 -8 -8 -13 0 -6
-11 -22 -25 -37 -14 -15 -25 -31 -25 -35 0 -9 -34 -55 -64 -87 -8 -8 -25 -35
-38 -60 -28 -52 -60 -103 -69 -110 -4 -3 -19 -27 -34 -55 -15 -27 -35 -59 -44
-70 -31 -38 -61 -84 -61 -95 0 -5 -7 -10 -15 -10 -8 0 -14 -3 -14 -7 3 -14
-23 -73 -31 -73 -5 0 -12 -10 -16 -22 -3 -13 -12 -30 -20 -39 -7 -8 -15 -24
-17 -35 -6 -29 -19 -58 -31 -66 -13 -9 -16 -50 -4 -65 6 -7 8 -13 4 -13 -9 0
24 -40 69 -82 22 -21 45 -38 52 -38 6 0 15 -9 18 -20 4 -11 11 -18 16 -15 5 4
9 3 9 -2 0 -11 129 -143 164 -168 35 -25 96 -87 96 -98 0 -5 5 -5 10 -2 5 3
10 2 10 -4 0 -5 8 -12 18 -15 11 -4 25 -17 32 -30 7 -13 20 -28 30 -32 17 -8
43 -29 135 -107 61 -51 85 -53 157 -15 69 36 80 46 73 67 -5 11 47 92 82 129
6 6 15 21 18 32 3 11 10 20 14 20 9 0 101 135 101 149 0 5 7 12 16 15 8 3 13
10 10 15 -3 5 4 20 15 35 11 14 18 26 14 26 -4 0 0 7 7 15 40 44 50 60 90 135
14 28 25 42 51 71 9 10 17 25 17 32 1 6 14 27 30 46 16 19 27 38 24 43 -3 4
-2 8 3 8 4 0 21 25 38 55 16 30 33 55 37 55 4 0 8 5 8 11 0 7 18 40 40 75 22
35 40 67 40 70 0 4 14 25 30 48 42 57 80 115 80 124 0 4 16 31 35 61 19 29 35
56 35 60 0 3 16 30 35 60 19 29 35 59 35 67 0 8 4 14 9 14 5 0 12 13 16 30 4
16 11 30 16 30 5 0 11 11 15 25 3 13 12 29 20 36 8 6 14 18 14 27 0 8 16 37
35 63 19 27 35 54 35 59 0 6 5 10 11 10 5 0 8 4 5 8 -3 5 8 24 24 43 16 19 29
39 30 45 0 6 8 20 18 32 45 53 51 62 47 62 -6 0 1 9 39 54 14 15 28 37 31 47
4 11 11 19 16 19 5 0 9 7 9 15 0 8 9 20 20 27 11 7 20 17 20 22 0 13 54 95 63
96 4 0 7 -4 7 -8 0 -5 10 -8 22 -7 27 2 29 0 126 -95 43 -41 97 -91 122 -111
25 -20 69 -59 98 -85 70 -65 80 -74 88 -74 3 0 23 -14 43 -30 55 -46 60 -50
67 -50 5 0 30 -17 119 -82 6 -4 26 -21 46 -38 20 -16 41 -30 46 -30 5 0 14 -5
21 -12 9 -9 8 -16 -5 -30 -9 -10 -12 -18 -8 -18 4 0 -8 -16 -28 -35 -20 -19
-42 -47 -50 -62 -7 -16 -24 -48 -36 -72 -19 -36 -23 -59 -22 -120 1 -93 10
-157 25 -185 15 -29 127 -136 141 -136 7 0 20 -9 31 -21 10 -11 26 -18 36 -16
10 3 24 -1 32 -8 11 -12 18 -10 41 8 15 12 33 28 39 35 22 26 108 112 113 112
2 0 49 46 104 103 54 56 99 96 99 90 0 -7 11 -13 24 -13 14 0 33 -10 43 -23
19 -23 147 -107 164 -107 5 0 9 -4 9 -9 0 -5 24 -21 53 -35 28 -15 70 -40 92
-56 22 -16 76 -47 120 -70 44 -23 99 -52 123 -65 23 -13 63 -31 90 -41 26 -10
49 -20 52 -23 3 -4 46 -27 95 -52 189 -98 244 -129 342 -193 55 -36 104 -66
108 -66 5 0 23 -11 41 -25 18 -14 35 -25 38 -25 4 0 29 -16 56 -35 27 -19 53
-35 58 -35 5 0 18 -13 30 -30 13 -16 27 -30 32 -30 6 0 18 -8 28 -18 10 -9 33
-28 52 -42 18 -14 43 -34 55 -45 23 -21 43 -35 90 -61 16 -9 35 -23 43 -30 7
-8 18 -14 23 -14 6 0 35 -16 65 -35 30 -19 59 -35 64 -35 6 0 10 -4 10 -9 0
-5 8 -12 18 -15 14 -5 17 -14 14 -41 -2 -19 -8 -35 -13 -35 -4 0 -11 -16 -15
-35 -3 -19 -10 -38 -15 -41 -5 -3 -9 -15 -9 -28 0 -12 -4 -26 -10 -32 -5 -5
-12 -27 -16 -49 -3 -22 -11 -48 -16 -59 -7 -13 -6 -38 3 -80 10 -51 20 -67 53
-99 23 -20 51 -37 63 -37 13 0 23 -4 23 -9 0 -5 16 -18 35 -30 27 -15 41 -18
59 -11 13 5 26 6 29 4 3 -3 11 5 18 17 13 25 22 37 59 77 14 15 41 49 60 77
19 27 44 59 55 71 11 12 29 34 40 48 11 15 30 39 43 53 12 14 22 29 22 32 0 3
17 24 37 46 20 22 36 42 36 45 -2 12 26 67 44 85 10 11 28 35 38 53 11 17 25
32 32 32 7 0 13 6 13 14 0 7 11 25 25 40 14 15 25 34 25 42 0 7 7 14 15 14 8
0 15 7 15 15 0 8 14 29 30 47 17 17 30 35 30 40 0 4 20 42 45 82 25 41 45 82
45 90 0 9 5 25 10 36 6 11 15 29 20 40 6 11 10 30 10 42 0 34 -65 120 -103
136 -43 18 -130 23 -169 9 -38 -14 -128 -100 -128 -122 0 -8 -5 -15 -10 -15
-10 0 -61 42 -89 73 -8 9 -20 17 -26 18 -5 0 -58 51 -118 112 -137 143 -429
438 -448 454 -8 6 -39 40 -69 75 -136 156 -428 448 -450 448 -5 0 -10 7 -10
15 0 8 -4 15 -9 15 -4 0 -106 97 -226 216 -119 118 -219 213 -222 210 -8 -7
-92 97 -86 107 2 4 0 14 -7 21 -8 11 -5 23 15 52 15 21 29 41 33 44 18 13 50
70 67 118 11 28 22 52 26 52 3 0 9 18 12 40 3 22 15 58 26 80 26 50 26 50 -2
80 -12 14 -30 38 -40 53 -10 15 -24 26 -31 25 -7 -2 -24 9 -38 25 -41 44 -109
75 -165 75 -27 1 -54 2 -59 4 -5 1 -19 -3 -32 -10 -12 -7 -27 -10 -32 -7 -5 3
-18 -11 -27 -31 -10 -20 -34 -53 -54 -73 -20 -20 -40 -47 -44 -61 -7 -22 -56
-80 -69 -80 -3 0 -18 12 -33 26 -15 15 -55 45 -88 67 -33 22 -67 46 -75 54
-28 24 -191 143 -197 143 -4 0 -13 7 -22 15 -36 34 -139 113 -176 135 -46 28
-63 42 -115 90 -21 19 -51 45 -67 57 -16 12 -43 34 -59 48 -16 14 -34 29 -39
33 -125 90 -137 107 -110 158 10 18 23 34 28 34 6 0 8 3 4 6 -3 4 1 14 10 22
37 37 179 263 227 359 6 13 15 23 19 23 5 0 6 4 2 9 -3 5 -1 12 5 16 5 3 10
15 10 26 0 10 4 19 8 19 9 0 70 129 88 185 27 82 32 118 22 140 -6 14 -15 25
-20 25 -5 0 -6 5 -3 10 3 6 13 10 22 10 22 0 58 32 61 55 5 33 11 47 20 41 7
-4 63 -14 112 -19 39 -4 100 25 136 66 57 64 84 100 84 114 0 7 5 13 10 13 6
0 10 6 10 14 0 8 6 21 13 28 6 7 18 25 26 41 8 15 18 27 23 27 4 0 8 11 8 25
0 13 6 28 13 32 7 4 18 19 25 33 7 14 21 40 32 58 11 17 17 32 14 32 -2 0 4
10 15 22 11 11 18 25 15 30 -3 4 -1 8 4 8 9 0 27 47 24 63 -1 4 2 7 7 7 7 0
19 33 26 75 1 6 7 23 13 38 7 16 12 30 12 33 0 5 30 42 60 73 58 60 111 140
162 241 13 25 25 47 29 50 3 3 12 15 21 28 l16 23 26 -33 c17 -23 25 -46 24
-70 -2 -55 5 -59 84 -54 39 3 73 7 75 10 2 2 21 0 41 -5 20 -4 60 -11 87 -14
28 -4 52 -11 53 -16 2 -5 15 -9 29 -9 14 0 71 -11 127 -25 107 -26 129 -31
216 -48 30 -6 58 -15 61 -19 3 -5 10 -8 15 -7 12 3 65 -10 86 -22 10 -5 31 -9
48 -9 16 0 30 -4 30 -10 0 -5 10 -10 22 -10 27 0 88 -22 88 -31 0 -4 16 -10
35 -13 19 -4 35 -11 35 -16 0 -6 8 -10 18 -10 10 0 22 -3 26 -7 4 -5 11 -8 14
-8 12 0 96 -27 114 -36 10 -5 24 -9 32 -9 7 0 34 -9 59 -20 29 -13 56 -18 72
-14 16 4 25 2 25 -5 0 -7 10 -10 25 -7 13 3 27 0 30 -5 4 -5 17 -9 31 -9 13 0
32 -4 42 -9 9 -5 47 -17 85 -26 37 -10 70 -21 73 -26 3 -5 16 -9 30 -9 13 0
32 -4 42 -9 9 -5 37 -17 62 -26 25 -10 62 -26 83 -36 22 -11 43 -17 47 -14 5
3 11 -3 14 -13 3 -10 22 -24 41 -31 19 -7 35 -17 35 -22 0 -6 5 -7 10 -4 6 3
10 2 10 -2 0 -5 12 -14 28 -21 42 -19 86 -44 92 -52 3 -4 15 -10 28 -14 12 -4
20 -11 17 -16 -4 -7 96 -90 110 -90 3 0 11 -4 18 -10 16 -13 97 -78 145 -117
23 -18 43 -33 46 -33 16 0 220 -157 279 -215 38 -36 99 -91 135 -122 37 -31
80 -68 97 -82 63 -55 385 -381 385 -391 0 -5 3 -10 8 -10 4 0 29 -28 57 -63
27 -34 60 -73 73 -87 71 -76 103 -115 137 -165 21 -30 42 -55 47 -55 4 0 8 -5
8 -11 0 -6 11 -23 24 -37 80 -88 146 -167 146 -175 0 -5 6 -15 13 -22 38 -43
88 -115 80 -115 -4 0 0 -5 10 -11 9 -5 17 -15 17 -22 0 -7 11 -24 25 -39 14
-15 25 -30 25 -34 0 -4 11 -21 24 -39 22 -29 42 -62 83 -135 70 -126 97 -148
163 -130 40 11 130 88 140 120 9 31 3 78 -13 94 -8 9 -19 26 -22 39 -10 35
-28 69 -51 94 -24 26 -90 144 -86 156 1 4 -16 36 -38 71 -22 35 -40 66 -40 70
0 4 -11 22 -24 39 -26 35 -65 110 -71 136 -2 9 -12 36 -21 61 -9 25 -18 52
-20 60 -2 8 -10 35 -17 60 -8 25 -15 47 -15 50 -5 39 -42 108 -107 198 -33 46
-60 87 -60 92 0 8 -84 108 -126 149 -34 35 -141 164 -165 201 -15 22 -31 37
-35 34 -5 -3 -8 -1 -7 4 4 11 -68 89 -108 117 -15 11 -45 36 -66 55 -21 19
-44 40 -51 45 -7 6 -31 26 -53 45 -22 19 -60 51 -85 71 -24 21 -56 48 -70 60
-30 27 -103 88 -128 106 -24 19 -202 160 -231 183 -47 38 -110 80 -120 80 -5
0 -10 4 -10 9 0 5 -25 26 -55 46 -30 21 -55 42 -55 47 0 4 -5 8 -11 8 -10 0
-43 25 -104 79 -11 10 -47 40 -80 66 -33 27 -61 52 -63 57 -2 4 -7 8 -12 8 -4
0 -23 13 -42 29 -80 71 -95 83 -120 99 -16 9 -28 21 -28 27 0 10 -34 36 -46
34 -3 0 -14 9 -23 20 -10 12 -22 21 -26 21 -5 0 -15 7 -24 15 -9 8 -28 26 -43
40 -15 14 -31 25 -37 25 -5 0 -17 7 -26 16 -18 19 -83 64 -91 64 -3 0 -25 20
-50 45 -24 25 -44 43 -44 41 0 -2 -16 11 -35 30 -20 19 -39 34 -44 34 -11 0
-40 24 -119 98 -31 28 -62 52 -69 52 -16 0 -19 3 -88 64 -27 25 -56 46 -63 46
-16 0 -74 31 -83 43 -3 5 -9 8 -13 7 -12 -4 -66 22 -66 31 0 5 -6 9 -14 9 -7
0 -19 7 -26 15 -7 8 -16 12 -21 9 -5 -3 -9 0 -9 5 0 6 -7 11 -15 11 -7 0 -18
6 -22 13 -4 7 -30 27 -58 45 -27 17 -55 36 -62 42 -7 5 -16 10 -20 10 -4 0
-20 10 -35 23 -14 12 -39 30 -55 39 -44 27 -68 43 -73 48 -22 22 -121 89 -147
100 -18 7 -33 16 -33 19 0 8 -71 41 -88 41 -5 0 -12 3 -14 8 -1 4 -25 18 -53
31 -139 66 -180 87 -185 92 -3 3 -18 9 -35 13 -16 4 -44 18 -62 32 -17 13 -35
24 -40 24 -4 0 -28 13 -52 29 -25 17 -48 28 -53 25 -4 -3 -8 0 -8 5 0 6 -5 11
-11 11 -6 0 -51 20 -101 45 -50 25 -96 45 -104 45 -7 0 -14 4 -16 8 -1 5 -30
22 -63 39 -33 16 -92 46 -131 66 -39 21 -78 37 -87 37 -8 0 -17 4 -19 10 -1 5
-18 14 -35 19 -32 9 -33 8 -56 -37z"/>
</g>
</svg>
